<svg id="Capa_1" enable-background="new 0 0 502 502" height="512" viewBox="0 0 502 502" width="512" xmlns="http://www.w3.org/2000/svg"><path d="m490 251c0 135.31-109.69 245-245 245-70.302 0-133.688-29.61-178.367-77.04-9.912-10.522 16.892-30.23 8.95-42.377-12.992-19.872-58.971-33.438-65.782-56.751-6.379-21.836-9.801-44.934-9.801-68.832 0-61.438 22.614-117.594 59.973-160.598 7.273-8.372 40.474-11.713 48.806-19.03 16.116-14.152 8.734-30.754 28.176-40.323 32.591-16.039 69.266-25.049 108.045-25.049 135.31 0 245 109.69 245 245z" fill="#c0e0ff"/><g fill="#fff"><path d="m126.994 410.216v-.868c0-4.824-3.911-8.735-8.735-8.735h-18.774c-5.064 0-9.169-4.105-9.169-9.17 0-4.521 3.275-8.269 7.581-9.023h58.376c6.796 0 12.306-5.51 12.306-12.306s-5.509-12.306-12.306-12.306h-52.672c-5.244 0-9.495-4.251-9.495-9.495s4.251-9.495 9.495-9.495h19.75c4.825 0 8.736-3.911 8.736-8.735v-1.519c0-4.824-3.911-8.736-8.736-8.736h-113.534c10.975 37.563 30.7 71.388 56.826 99.123h51.616c4.824 0 8.735-3.911 8.735-8.735z"/><path d="m167.452 85.279v-1.529c0-4.857-3.937-8.794-8.794-8.794h-19.881c-5.279 0-9.558-4.28-9.558-9.558 0-5.279 4.279-9.558 9.558-9.558h53.023c6.842 0 12.388-5.546 12.388-12.387s-5.546-12.387-12.388-12.387h-54.838c-30.946 15.231-58.21 36.794-80.099 63.008h101.795c4.857-.001 8.794-3.938 8.794-8.795z"/><path d="m322 63c0 7.18 5.82 13 13 13h81.44c-9.698-9.502-20.181-18.204-31.345-26h-50.095c-7.18 0-13 5.82-13 13z"/></g><path d="m266.545 152.372h-4.819c-5.912 0-10.705-4.793-10.705-10.705v-62.522c0-5.912 4.793-10.705 10.705-10.705h4.819c5.912 0 10.705 4.793 10.705 10.705v62.522c0 5.913-4.793 10.705-10.705 10.705z" fill="#5e5e5e"/><path d="m240.529 354.334h15.737v68.195h-15.737z" fill="#5e5e5e"/><path d="m408.394 354.334h15.737v68.195h-15.737z" fill="#5e5e5e"/><path d="m240.529 354.334h15.737v30.415h-15.737z" fill="#232323"/><path d="m408.394 354.334h15.737v30.415h-15.737z" fill="#232323"/><path d="m290.456 136.071h-47.946-80.823l-41.393-1.533-89.066-3.299c-12.573 22.392-21.726 46.958-26.759 72.996l74.401 8.963 22.252 2.681c34.805 3.867 61.057 33.528 60.558 68.652-.625 43.962 36.338 79.313 80.304 79.313h211.767c21.304 0 38.574-17.27 38.574-38.574v-46.198z" fill="#ff3972"/><path d="m482.664 350.791c.163-.185.324-.371.484-.558.236-.277.468-.558.696-.842.15-.187.297-.375.443-.564.227-.294.451-.591.67-.892.136-.187.27-.376.402-.566.218-.312.433-.625.642-.944.122-.186.241-.374.36-.562.208-.329.414-.661.613-.997.109-.184.214-.37.319-.555.198-.348.393-.697.58-1.052.095-.18.187-.363.279-.545.186-.366.369-.733.543-1.105.083-.178.162-.358.243-.537.172-.383.342-.767.501-1.156.071-.173.137-.348.206-.521.158-.402.314-.805.459-1.214.059-.165.112-.332.169-.498.144-.422.284-.846.413-1.275.047-.154.088-.311.132-.466.128-.445.253-.892.365-1.344.035-.14.064-.282.098-.423.111-.471.219-.943.313-1.42.024-.121.043-.244.065-.366.093-.5.182-1.001.256-1.507.014-.098.024-.197.037-.295.073-.533.141-1.069.192-1.609.005-.058.008-.117.013-.175.053-.581.096-1.166.123-1.754-.589.027-1.181.045-1.777.045h-211.766c-43.966 0-80.929-35.351-80.304-79.313.499-35.124-25.753-64.784-60.558-68.652l-106.75-12.86-15.361-1.851c-4.836 12.798-8.642 26.102-11.294 39.819l83.924 10.11 12.73 1.533c1.088.121 2.167.267 3.237.438 3.211.512 6.342 1.245 9.378 2.182 2.024.625 4.006 1.341 5.94 2.142s3.823 1.689 5.66 2.657 3.623 2.018 5.353 3.143c.865.563 1.716 1.144 2.553 1.744 1.673 1.2 3.289 2.473 4.842 3.815s3.044 2.752 4.469 4.226c.712.737 1.407 1.49 2.086 2.258 1.356 1.536 2.644 3.133 3.858 4.787s2.355 3.363 3.417 5.123c1.063 1.76 2.048 3.572 2.951 5.43s1.723 3.762 2.457 5.707c2.935 7.78 4.482 16.22 4.357 25.001-.625 43.962 36.338 79.313 80.304 79.313h211.767c.656 0 1.309-.017 1.958-.049.218-.011.432-.034.649-.048.429-.029.859-.055 1.284-.098.256-.026.508-.064.763-.094.381-.046.764-.088 1.141-.145.273-.041.541-.094.812-.141.355-.061.711-.119 1.062-.19.281-.057.558-.125.837-.188.335-.076.672-.148 1.004-.232.285-.072.566-.155.848-.234.32-.089.642-.175.958-.272.286-.088.567-.185.85-.279.307-.102.615-.201.918-.311.285-.103.565-.215.847-.324.295-.114.591-.227.883-.348.284-.118.563-.245.843-.37.281-.125.563-.249.841-.38.283-.134.56-.276.839-.416.269-.136.539-.27.804-.412.279-.149.554-.305.829-.461.256-.145.512-.289.764-.439.277-.165.55-.337.823-.51.242-.153.485-.305.723-.464.273-.181.541-.368.809-.555.23-.161.46-.322.687-.488.268-.196.531-.398.794-.601.217-.168.433-.336.646-.508.263-.213.522-.43.779-.649.204-.173.406-.348.606-.525.257-.228.51-.461.761-.696.19-.178.378-.357.564-.538.251-.245.499-.495.744-.747.176-.181.35-.363.522-.548.242-.262.482-.527.719-.795z" fill="#cc175d"/><path d="m354.56 136.071h-64.104c1.97 83.502 70.135 150.624 154.111 150.624 16.683 0 32.71-2.725 47.759-7.623v-5.235c0-76.086-61.679-137.766-137.766-137.766z" fill="#fdd33a"/><path d="m354.044 136.071h-63.589c1.97 83.502 70.135 150.624 154.111 150.624 11.109 0 21.918-1.233 32.35-3.486-68.944-14.188-121.01-74.419-122.872-147.138z" fill="#e0af24"/><path d="m451.671 434.349h-243.928c-27.488 0-49.851-22.363-49.851-49.852 0-5.079 4.117-9.197 9.197-9.197s9.197 4.118 9.197 9.197c0 17.346 14.111 31.458 31.457 31.458h243.928c17.346 0 31.457-14.112 31.457-31.458 0-5.079 4.117-9.197 9.197-9.197s9.197 4.118 9.197 9.197c0 27.488-22.363 49.852-49.851 49.852z" fill="#5e5e5e"/><path d="m490.605 110.029h-452.94c-6.293 0-11.395-5.102-11.395-11.395 0-6.293 5.102-11.395 11.395-11.395h452.94c6.293 0 11.395 5.102 11.395 11.395 0 6.293-5.102 11.395-11.395 11.395z" fill="#7f7f7f"/><path d="m92.424 98.634c0-6.293 5.102-11.395 11.395-11.395h-66.154c-6.293 0-11.395 5.102-11.395 11.395s5.102 11.395 11.395 11.395h66.153c-6.292 0-11.394-5.102-11.394-11.395z" fill="#5e5e5e"/><circle cx="452.559" cy="218.971" fill="#ffe388" r="12.971"/><circle cx="424.059" cy="190.471" fill="#ffe388" r="8.941"/></svg>