<svg id="Capa_1" enable-background="new 0 0 511.958 511.958" height="512" viewBox="0 0 511.958 511.958" width="512" xmlns="http://www.w3.org/2000/svg" xmlns:xlink="http://www.w3.org/1999/xlink"><linearGradient id="SVGID_1_" gradientUnits="userSpaceOnUse" x1="255.979" x2="255.979" y1="511.958" y2="0"><stop offset="0" stop-color="#fd5900"/><stop offset="1" stop-color="#ffde00"/></linearGradient><g><g><path d="m255.979 74.979c-99.371 0-181 81.651-181 181 0 99.371 81.651 181 181 181 99.371 0 181-81.651 181-181 0-99.371-81.652-181-181-181zm0 332c-83.262 0-151-67.738-151-151s67.738-151 151-151 151 67.738 151 151-67.739 151-151 151zm251.121-130.513c6.477-12.829 6.477-28.146 0-40.975l-6.707-13.285c-1.462-2.896-1.973-6.121-1.478-9.328l2.273-14.707c2.196-14.202-2.537-28.77-12.662-38.969l-10.483-10.562c-2.286-2.303-3.769-5.213-4.288-8.416l-2.382-14.69c-2.276-14.028-11.105-26.302-23.66-32.927 0 0-13.402-7.895-13.66-8.027-2.885-1.483-5.194-3.792-6.677-6.678l-6.806-13.234c-6.417-12.48-19.502-21.709-34.149-24.085l-14.689-2.382c-3.203-.52-6.113-2.002-8.416-4.287l-10.561-10.484c-10.199-10.124-24.764-14.854-38.968-12.662l-14.707 2.273c-3.209.496-6.433-.015-9.329-1.477l-13.285-6.707c-12.828-6.476-28.145-6.477-40.973 0l-13.286 6.707c-2.895 1.461-6.119 1.971-9.328 1.478l-14.707-2.273c-14.205-2.197-28.77 2.538-38.969 12.662l-10.563 10.483c-2.302 2.286-5.212 3.768-8.415 4.288l-14.691 2.382c-14.646 2.376-27.731 11.604-34.148 24.085l-6.805 13.234c-1.484 2.885-3.793 5.195-6.679 6.678l-13.235 6.806c-12.48 6.417-21.709 19.502-24.084 34.148l-2.383 14.691c-.519 3.203-2.002 6.112-4.288 8.415l-10.482 10.562c-10.124 10.199-14.857 24.766-12.662 38.968l2.274 14.708c.496 3.206-.015 6.431-1.478 9.327l-6.707 13.285c-6.476 12.828-6.476 28.145 0 40.974l6.707 13.285c1.462 2.896 1.973 6.121 1.478 9.328l-2.274 14.708c-2.195 14.202 2.539 28.769 12.662 38.968l10.484 10.563c2.286 2.303 3.769 5.212 4.288 8.416l2.383 14.689c2.375 14.647 11.604 27.732 24.084 34.149l13.234 6.805c2.886 1.484 5.195 3.793 6.679 6.679l6.805 13.235c6.418 12.48 19.503 21.709 34.149 24.084l14.69 2.383c3.203.52 6.113 2.002 8.415 4.287l10.563 10.485c10.201 10.124 24.767 14.854 38.968 12.661l14.708-2.274c3.205-.496 6.432.016 9.327 1.478l13.286 6.707c6.414 3.238 13.45 4.857 20.486 4.857 7.037 0 14.073-1.619 20.487-4.857l13.285-6.707c2.896-1.462 6.123-1.972 9.328-1.478l14.707 2.273c14.202 2.194 28.769-2.538 38.969-12.662l10.562-10.484c2.302-2.286 5.212-3.768 8.416-4.288l14.689-2.383c14.028-2.275 26.303-11.104 32.928-23.66 0 0 7.895-13.402 8.027-13.66 1.483-2.885 3.793-5.194 6.678-6.678l13.234-6.805c12.78-6.571 21.784-18.963 24.085-33.149l2.382-14.689c.52-3.203 2.002-6.113 4.288-8.416.159-.16.314-.324.465-.491l10.281-11.337c9.943-10.186 14.576-24.624 12.399-38.702l-2.273-14.707c-.496-3.207.015-6.433 1.477-9.329zm-26.78-13.52-6.707 13.284c-4.3 8.517-5.802 18.002-4.345 27.432l2.274 14.708c.747 4.829-.863 9.783-4.306 13.25-.159.16-.314.324-.466.491l-10.279 11.335c-6.573 6.729-10.84 15.186-12.349 24.482l-2.382 14.689c-.782 4.824-3.844 9.038-8.19 11.272l-13.235 6.806c-8.343 4.291-15.048 10.928-19.417 19.215 0 0-7.894 13.401-8.026 13.659-2.234 4.346-6.448 7.407-11.272 8.189l-14.69 2.383c-9.418 1.528-17.976 5.888-24.747 12.609l-10.562 10.484c-3.468 3.442-8.423 5.049-13.251 4.306l-14.707-2.273c-9.43-1.459-18.916.044-27.433 4.345l-13.284 6.707c-4.362 2.203-9.571 2.202-13.934 0l-13.285-6.707c-6.406-3.234-13.359-4.886-20.424-4.886-2.329 0-4.67.179-7.008.541l-14.708 2.274c-4.833.744-9.783-.864-13.25-4.305l-10.562-10.484c-6.771-6.721-15.328-11.081-24.746-12.609l-14.691-2.383c-5.26-.853-10.191-4.144-12.271-8.189l-6.806-13.235c-4.363-8.484-11.154-15.275-19.639-19.639l-13.235-6.805c-4.045-2.08-7.336-7.012-8.189-12.272l-2.383-14.689c-1.527-9.418-5.887-17.976-12.609-24.748l-10.484-10.563c-3.443-3.468-5.052-8.422-4.306-13.251l2.273-14.707c1.458-9.429-.044-18.916-4.345-27.433l-6.707-13.284c-2.203-4.363-2.203-9.572 0-13.934l6.707-13.284c4.3-8.518 5.803-18.004 4.345-27.432l-2.273-14.707c-.747-4.83.863-9.784 4.306-13.251l10.483-10.562c6.722-6.772 11.083-15.33 12.609-24.747l2.383-14.691c.853-5.26 4.144-10.191 8.189-12.271l13.234-6.806c8.485-4.362 15.276-11.153 19.64-19.639l6.805-13.235c2.08-4.045 7.012-7.337 12.272-8.19l14.691-2.382c9.418-1.528 17.975-5.888 24.746-12.609l10.562-10.483c3.469-3.443 8.423-5.049 13.251-4.306l14.708 2.274c9.429 1.456 18.915-.045 27.432-4.345l13.285-6.707c4.363-2.203 9.571-2.201 13.933 0l13.284 6.707c8.517 4.3 18.002 5.801 27.432 4.345l14.708-2.274c4.83-.742 9.783.863 13.25 4.305l10.562 10.484c6.771 6.721 15.328 11.082 24.747 12.609l14.689 2.382c5.261.853 10.192 4.145 12.272 8.19l6.806 13.234c4.29 8.343 10.928 15.049 19.215 19.418 0 0 13.401 7.894 13.659 8.026 4.346 2.234 7.407 6.448 8.189 11.272l2.382 14.69c1.528 9.417 5.888 17.975 12.609 24.747l10.484 10.562c3.442 3.468 5.052 8.421 4.306 13.251l-2.274 14.708c-1.457 9.43.045 18.916 4.345 27.432l6.707 13.285c2.205 4.363 2.205 9.572.003 13.935zm-128.25-65.674c-6.657-2.958-14.481-.704-18.544 5.345-3.314 4.935-18.551 23.363-32.547 23.363-2.484 0-10.18-5.782-18.108-23.656-7.113-16.035-11.892-36.668-11.892-51.344 0-8.284-6.716-15-15-15s-15 6.716-15 15c0 14.676-4.779 35.309-11.892 51.344-7.929 17.874-15.624 23.656-18.108 23.656-13.593 0-28.442-17.329-32.547-23.363-4.063-6.049-11.886-8.304-18.544-5.345-6.659 2.959-10.228 10.276-8.461 17.346l30 120c1.669 6.677 7.669 11.362 14.552 11.352h120c6.883.01 12.883-4.674 14.552-11.352l30-120c1.767-7.07-1.802-14.387-8.461-17.346zm-47.803 118.707h-96.577l-15.99-63.959c5.935 2.433 12.399 3.959 19.278 3.959 19.695 0 34.849-17.85 45-40.094 10.151 22.244 25.305 40.094 45 40.094 6.879 0 13.343-1.527 19.278-3.959z" fill="url(#SVGID_1_)"/></g></g></svg>