<svg viewBox="1 0 511.99999 511" xmlns="http://www.w3.org/2000/svg"><path d="m511.601562 256.300781c0 141.277344-114.523437 255.800781-255.800781 255.800781-47.285156 0-91.574219-12.832031-129.570312-35.195312-35.824219-21.089844-66.050781-50.648438-87.933594-85.917969-24.285156-39.109375-38.296875-85.269531-38.296875-134.6875 0-141.273437 114.527344-255.800781 255.800781-255.800781 49.429688 0 95.566407 14.011719 134.6875 38.285156 35.28125 21.894532 64.839844 52.121094 85.917969 87.945313 22.363281 38.003906 35.195312 82.292969 35.195312 129.570312zm0 0" fill="#5cbf96"/><path d="m512 91.136719-385.769531 385.769531c-35.824219-21.089844-66.050781-50.648438-87.933594-85.917969l352.191406-352.203125 34.582031-34.578125zm0 0" fill="#f7d65e"/><g fill="#d1a22a"><path d="m393.742188 35.527344 38.34375 38.34375-14.757813 14.757812-38.34375-38.34375zm0 0"/><path d="m322.128906 107.144531 27.265625 27.269531-14.757812 14.757813-27.269531-27.269531zm0 0"/><path d="m250.511719 178.761719 38.34375 38.339843-14.757813 14.761719-38.34375-38.34375zm0 0"/><path d="m143.082031 286.1875-1.675781 1.675781c-.324219 8.859375-.183594 17.726563.40625 26.570313l13.785156 13.785156 14.757813-14.757812zm0 0"/><path d="m357.933594 71.335938 27.269531 27.269531-14.757813 14.757812-27.269531-27.269531zm0 0"/><path d="m286.320312 142.953125 27.269532 27.269531-14.761719 14.757813-27.265625-27.269531zm0 0"/><path d="m178.898438 250.375 27.265624 27.269531-14.757812 14.757813-27.269531-27.265625zm0 0"/><path d="m214.703125 214.566406 27.269531 27.269532-14.757812 14.761718-27.269532-27.269531zm0 0"/></g><path d="m68.417969.5v429.933594c6.035156 6.496094 12.40625 12.664062 19.078125 18.503906 44.976562 39.328125 103.863281 63.164062 168.304687 63.164062 88.121094 0 165.832031-44.558593 211.847657-112.375zm87.703125 211.730469 212.171875 212.167969h-212.171875zm0 0" fill="#ea7e5a"/><path d="m68.421875 73.578125h54.226563v20.875h-54.226563zm0 0" fill="#d64f39"/><path d="m68.421875 174.859375h38.566406v20.871094h-38.566406zm0 0" fill="#d64f39"/><path d="m68.421875 276.140625h54.226563v20.871094h-54.226563zm0 0" fill="#d64f39"/><path d="m68.417969 428.066406v2.367188c6.035156 6.496094 12.40625 12.664062 19.078125 18.503906h19.492187v-20.871094zm0 0" fill="#d64f39"/><path d="m68.421875 124.21875h38.566406v20.871094h-38.566406zm0 0" fill="#d64f39"/><path d="m68.421875 225.5h38.566406v20.871094h-38.566406zm0 0" fill="#d64f39"/><path d="m68.421875 377.421875h38.566406v20.871094h-38.566406zm0 0" fill="#d64f39"/><path d="m68.421875 326.78125h38.566406v20.871094h-38.566406zm0 0" fill="#d64f39"/></svg>